<mxfile host="app.diagrams.net" agent="Mozilla/5.0 (Windows NT 10.0; Win64; x64) AppleWebKit/537.36 (KHTML, like Gecko) Chrome/130.0.0.0 Safari/537.36" version="24.8.4">
  <diagram id="C5RBs43oDa-KdzZeNtuy" name="Page-1">
    <mxGraphModel dx="1434" dy="1941" grid="1" gridSize="10" guides="1" tooltips="1" connect="1" arrows="1" fold="1" page="1" pageScale="1" pageWidth="827" pageHeight="1169" math="0" shadow="0">
      <root>
        <mxCell id="WIyWlLk6GJQsqaUBKTNV-0" />
        <mxCell id="WIyWlLk6GJQsqaUBKTNV-1" parent="WIyWlLk6GJQsqaUBKTNV-0" />
        <mxCell id="IK-9jPHqY36KTBOE9BuH-42" value="" style="edgeStyle=orthogonalEdgeStyle;rounded=0;orthogonalLoop=1;jettySize=auto;html=1;entryX=0.5;entryY=0;entryDx=0;entryDy=0;" edge="1" parent="WIyWlLk6GJQsqaUBKTNV-1" target="IK-9jPHqY36KTBOE9BuH-16">
          <mxGeometry relative="1" as="geometry">
            <mxPoint x="185" y="-578" as="sourcePoint" />
            <mxPoint x="180" y="-498" as="targetPoint" />
          </mxGeometry>
        </mxCell>
        <mxCell id="IK-9jPHqY36KTBOE9BuH-9" value="" style="edgeStyle=orthogonalEdgeStyle;rounded=0;orthogonalLoop=1;jettySize=auto;html=1;" edge="1" parent="WIyWlLk6GJQsqaUBKTNV-1" source="IK-9jPHqY36KTBOE9BuH-5" target="IK-9jPHqY36KTBOE9BuH-8">
          <mxGeometry relative="1" as="geometry" />
        </mxCell>
        <mxCell id="IK-9jPHqY36KTBOE9BuH-59" value="" style="edgeStyle=orthogonalEdgeStyle;rounded=0;orthogonalLoop=1;jettySize=auto;html=1;" edge="1" parent="WIyWlLk6GJQsqaUBKTNV-1" source="IK-9jPHqY36KTBOE9BuH-5" target="IK-9jPHqY36KTBOE9BuH-58">
          <mxGeometry relative="1" as="geometry" />
        </mxCell>
        <mxCell id="IK-9jPHqY36KTBOE9BuH-5" value="Power-up dan Koleksi: Permainan ini&amp;nbsp; menampilkan power-up seperti , kecepatan tambah magnet untuk membantu pemain, seperti koin." style="rounded=1;whiteSpace=wrap;html=1;" vertex="1" parent="WIyWlLk6GJQsqaUBKTNV-1">
          <mxGeometry x="350" y="-655.5" width="170" height="101" as="geometry" />
        </mxCell>
        <mxCell id="IK-9jPHqY36KTBOE9BuH-11" value="" style="edgeStyle=orthogonalEdgeStyle;rounded=0;orthogonalLoop=1;jettySize=auto;html=1;" edge="1" parent="WIyWlLk6GJQsqaUBKTNV-1" source="IK-9jPHqY36KTBOE9BuH-8" target="IK-9jPHqY36KTBOE9BuH-10">
          <mxGeometry relative="1" as="geometry" />
        </mxCell>
        <mxCell id="IK-9jPHqY36KTBOE9BuH-8" value="Rintangan :&lt;div&gt;&amp;nbsp;Pemain harus menghindari rintangan seperti pepohonan, ,&amp;nbsp; atau jebakan yang menambah tantangan.&lt;/div&gt;" style="rounded=1;whiteSpace=wrap;html=1;" vertex="1" parent="WIyWlLk6GJQsqaUBKTNV-1">
          <mxGeometry x="650" y="-650" width="170" height="90" as="geometry" />
        </mxCell>
        <mxCell id="IK-9jPHqY36KTBOE9BuH-14" style="edgeStyle=orthogonalEdgeStyle;rounded=0;orthogonalLoop=1;jettySize=auto;html=1;entryX=1;entryY=0.5;entryDx=0;entryDy=0;" edge="1" parent="WIyWlLk6GJQsqaUBKTNV-1" source="IK-9jPHqY36KTBOE9BuH-10" target="IK-9jPHqY36KTBOE9BuH-13">
          <mxGeometry relative="1" as="geometry" />
        </mxCell>
        <mxCell id="IK-9jPHqY36KTBOE9BuH-10" value="Desain Level dan Tema: Meskipun gameplay umumnya terus menerus, level sering berubah suasana dan rintangan, memberikan variasi (misalnya, berlari melalui hutan)." style="rounded=1;whiteSpace=wrap;html=1;" vertex="1" parent="WIyWlLk6GJQsqaUBKTNV-1">
          <mxGeometry x="650" y="-467.5" width="170" height="110" as="geometry" />
        </mxCell>
        <mxCell id="IK-9jPHqY36KTBOE9BuH-19" style="edgeStyle=orthogonalEdgeStyle;rounded=0;orthogonalLoop=1;jettySize=auto;html=1;" edge="1" parent="WIyWlLk6GJQsqaUBKTNV-1" source="IK-9jPHqY36KTBOE9BuH-13" target="IK-9jPHqY36KTBOE9BuH-16">
          <mxGeometry relative="1" as="geometry" />
        </mxCell>
        <mxCell id="IK-9jPHqY36KTBOE9BuH-13" value="Tingkat Kesulitan yang Meningkat: Seiring berjalannya waktu, kecepatan permainan biasanya meningkat, dan rintangan atau musuh yang lebih kompleks diperkenalkan, menjaga permainan tetap menantang." style="rounded=1;whiteSpace=wrap;html=1;" vertex="1" parent="WIyWlLk6GJQsqaUBKTNV-1">
          <mxGeometry x="350" y="-472.5" width="190" height="120" as="geometry" />
        </mxCell>
        <mxCell id="IK-9jPHqY36KTBOE9BuH-21" value="" style="edgeStyle=orthogonalEdgeStyle;rounded=0;orthogonalLoop=1;jettySize=auto;html=1;" edge="1" parent="WIyWlLk6GJQsqaUBKTNV-1" source="IK-9jPHqY36KTBOE9BuH-16" target="IK-9jPHqY36KTBOE9BuH-20">
          <mxGeometry relative="1" as="geometry" />
        </mxCell>
        <mxCell id="IK-9jPHqY36KTBOE9BuH-16" value="Game Menu" style="rounded=1;whiteSpace=wrap;html=1;" vertex="1" parent="WIyWlLk6GJQsqaUBKTNV-1">
          <mxGeometry x="115" y="-440" width="140" height="55" as="geometry" />
        </mxCell>
        <mxCell id="IK-9jPHqY36KTBOE9BuH-27" value="" style="edgeStyle=orthogonalEdgeStyle;rounded=0;orthogonalLoop=1;jettySize=auto;html=1;" edge="1" parent="WIyWlLk6GJQsqaUBKTNV-1" source="IK-9jPHqY36KTBOE9BuH-20" target="IK-9jPHqY36KTBOE9BuH-26">
          <mxGeometry relative="1" as="geometry" />
        </mxCell>
        <mxCell id="IK-9jPHqY36KTBOE9BuH-20" value="Play" style="rounded=1;whiteSpace=wrap;html=1;" vertex="1" parent="WIyWlLk6GJQsqaUBKTNV-1">
          <mxGeometry x="115" y="-305" width="140" height="55" as="geometry" />
        </mxCell>
        <mxCell id="IK-9jPHqY36KTBOE9BuH-29" value="" style="edgeStyle=orthogonalEdgeStyle;rounded=0;orthogonalLoop=1;jettySize=auto;html=1;" edge="1" parent="WIyWlLk6GJQsqaUBKTNV-1" source="IK-9jPHqY36KTBOE9BuH-26" target="IK-9jPHqY36KTBOE9BuH-28">
          <mxGeometry relative="1" as="geometry" />
        </mxCell>
        <mxCell id="IK-9jPHqY36KTBOE9BuH-35" value="" style="edgeStyle=orthogonalEdgeStyle;rounded=0;orthogonalLoop=1;jettySize=auto;html=1;" edge="1" parent="WIyWlLk6GJQsqaUBKTNV-1" source="IK-9jPHqY36KTBOE9BuH-26" target="IK-9jPHqY36KTBOE9BuH-34">
          <mxGeometry relative="1" as="geometry" />
        </mxCell>
        <mxCell id="IK-9jPHqY36KTBOE9BuH-26" value="Objectives" style="rounded=1;whiteSpace=wrap;html=1;" vertex="1" parent="WIyWlLk6GJQsqaUBKTNV-1">
          <mxGeometry x="115" y="-170" width="140" height="55" as="geometry" />
        </mxCell>
        <mxCell id="IK-9jPHqY36KTBOE9BuH-31" value="" style="edgeStyle=orthogonalEdgeStyle;rounded=0;orthogonalLoop=1;jettySize=auto;html=1;" edge="1" parent="WIyWlLk6GJQsqaUBKTNV-1" source="IK-9jPHqY36KTBOE9BuH-28" target="IK-9jPHqY36KTBOE9BuH-30">
          <mxGeometry relative="1" as="geometry" />
        </mxCell>
        <mxCell id="IK-9jPHqY36KTBOE9BuH-38" value="" style="edgeStyle=orthogonalEdgeStyle;rounded=0;orthogonalLoop=1;jettySize=auto;html=1;" edge="1" parent="WIyWlLk6GJQsqaUBKTNV-1" source="IK-9jPHqY36KTBOE9BuH-28" target="IK-9jPHqY36KTBOE9BuH-37">
          <mxGeometry relative="1" as="geometry" />
        </mxCell>
        <mxCell id="IK-9jPHqY36KTBOE9BuH-28" value="Pause" style="rounded=1;whiteSpace=wrap;html=1;" vertex="1" parent="WIyWlLk6GJQsqaUBKTNV-1">
          <mxGeometry x="115" y="-35" width="140" height="55" as="geometry" />
        </mxCell>
        <mxCell id="IK-9jPHqY36KTBOE9BuH-45" value="" style="edgeStyle=orthogonalEdgeStyle;rounded=0;orthogonalLoop=1;jettySize=auto;html=1;" edge="1" parent="WIyWlLk6GJQsqaUBKTNV-1" source="IK-9jPHqY36KTBOE9BuH-30" target="IK-9jPHqY36KTBOE9BuH-44">
          <mxGeometry relative="1" as="geometry" />
        </mxCell>
        <mxCell id="IK-9jPHqY36KTBOE9BuH-47" value="" style="edgeStyle=orthogonalEdgeStyle;rounded=0;orthogonalLoop=1;jettySize=auto;html=1;" edge="1" parent="WIyWlLk6GJQsqaUBKTNV-1" source="IK-9jPHqY36KTBOE9BuH-30" target="IK-9jPHqY36KTBOE9BuH-46">
          <mxGeometry relative="1" as="geometry" />
        </mxCell>
        <mxCell id="IK-9jPHqY36KTBOE9BuH-30" value="setting" style="rounded=1;whiteSpace=wrap;html=1;" vertex="1" parent="WIyWlLk6GJQsqaUBKTNV-1">
          <mxGeometry x="115" y="100" width="140" height="55" as="geometry" />
        </mxCell>
        <mxCell id="IK-9jPHqY36KTBOE9BuH-34" value="berfungsi sebagai panduan bagi pemain untuk mencapai berbagai tujuan dalam game yang akan memberi mereka hadiah tambahan." style="rounded=1;whiteSpace=wrap;html=1;" vertex="1" parent="WIyWlLk6GJQsqaUBKTNV-1">
          <mxGeometry x="360" y="-184.07" width="170" height="83.13" as="geometry" />
        </mxCell>
        <mxCell id="IK-9jPHqY36KTBOE9BuH-37" value="&lt;div&gt;Saat permainan dijeda (dengan mengetuk tombol pause)&lt;/div&gt;&lt;div&gt;Resume, Restart, Main menu&amp;nbsp;&lt;/div&gt;" style="rounded=1;whiteSpace=wrap;html=1;" vertex="1" parent="WIyWlLk6GJQsqaUBKTNV-1">
          <mxGeometry x="360" y="-42.5" width="170" height="70" as="geometry" />
        </mxCell>
        <mxCell id="IK-9jPHqY36KTBOE9BuH-44" value="&lt;div&gt;Di menu pengaturan, pemain bisa mengubah beberapa preferensi terkait dengan pengalaman bermain mereka, seperti: sound dan kontrol.&lt;/div&gt;&lt;div&gt;&lt;br&gt;&lt;/div&gt;" style="rounded=1;whiteSpace=wrap;html=1;" vertex="1" parent="WIyWlLk6GJQsqaUBKTNV-1">
          <mxGeometry x="360" y="77.5" width="180" height="100" as="geometry" />
        </mxCell>
        <mxCell id="IK-9jPHqY36KTBOE9BuH-49" value="" style="edgeStyle=orthogonalEdgeStyle;rounded=0;orthogonalLoop=1;jettySize=auto;html=1;" edge="1" parent="WIyWlLk6GJQsqaUBKTNV-1" source="IK-9jPHqY36KTBOE9BuH-46">
          <mxGeometry relative="1" as="geometry">
            <mxPoint x="185" y="370" as="targetPoint" />
          </mxGeometry>
        </mxCell>
        <mxCell id="IK-9jPHqY36KTBOE9BuH-53" value="" style="edgeStyle=orthogonalEdgeStyle;rounded=0;orthogonalLoop=1;jettySize=auto;html=1;" edge="1" parent="WIyWlLk6GJQsqaUBKTNV-1" source="IK-9jPHqY36KTBOE9BuH-46" target="IK-9jPHqY36KTBOE9BuH-52">
          <mxGeometry relative="1" as="geometry" />
        </mxCell>
        <mxCell id="IK-9jPHqY36KTBOE9BuH-46" value="Achievements" style="rounded=1;whiteSpace=wrap;html=1;" vertex="1" parent="WIyWlLk6GJQsqaUBKTNV-1">
          <mxGeometry x="115" y="235" width="140" height="55" as="geometry" />
        </mxCell>
        <mxCell id="IK-9jPHqY36KTBOE9BuH-51" value="" style="edgeStyle=orthogonalEdgeStyle;rounded=0;orthogonalLoop=1;jettySize=auto;html=1;" edge="1" parent="WIyWlLk6GJQsqaUBKTNV-1" target="IK-9jPHqY36KTBOE9BuH-50">
          <mxGeometry relative="1" as="geometry">
            <mxPoint x="185" y="425" as="sourcePoint" />
          </mxGeometry>
        </mxCell>
        <mxCell id="IK-9jPHqY36KTBOE9BuH-57" value="" style="edgeStyle=orthogonalEdgeStyle;rounded=0;orthogonalLoop=1;jettySize=auto;html=1;" edge="1" parent="WIyWlLk6GJQsqaUBKTNV-1" source="IK-9jPHqY36KTBOE9BuH-50" target="IK-9jPHqY36KTBOE9BuH-56">
          <mxGeometry relative="1" as="geometry" />
        </mxCell>
        <mxCell id="IK-9jPHqY36KTBOE9BuH-50" value="Leaderboard" style="rounded=1;whiteSpace=wrap;html=1;" vertex="1" parent="WIyWlLk6GJQsqaUBKTNV-1">
          <mxGeometry x="115" y="370" width="140" height="55" as="geometry" />
        </mxCell>
        <mxCell id="IK-9jPHqY36KTBOE9BuH-52" value="sistem pencapaian (achievements) yang memberi pemain tantangan Misalnya, mencapai skor tertentu, menghindari sejumlah rintangan, atau mengumpulkan koin dalam jumlah besar" style="rounded=1;whiteSpace=wrap;html=1;" vertex="1" parent="WIyWlLk6GJQsqaUBKTNV-1">
          <mxGeometry x="355" y="209.38" width="180" height="106.25" as="geometry" />
        </mxCell>
        <mxCell id="IK-9jPHqY36KTBOE9BuH-56" value="Papan skor (leaderboard) menampilkan skor tertinggi yang telah dicapai pemain" style="rounded=1;whiteSpace=wrap;html=1;" vertex="1" parent="WIyWlLk6GJQsqaUBKTNV-1">
          <mxGeometry x="357.5" y="357.5" width="175" height="80" as="geometry" />
        </mxCell>
        <mxCell id="IK-9jPHqY36KTBOE9BuH-58" value="Game start" style="ellipse;whiteSpace=wrap;html=1;rounded=1;" vertex="1" parent="WIyWlLk6GJQsqaUBKTNV-1">
          <mxGeometry x="130" y="-670" width="110" height="130" as="geometry" />
        </mxCell>
        <mxCell id="IK-9jPHqY36KTBOE9BuH-60" value="" style="endArrow=none;html=1;rounded=0;" edge="1" parent="WIyWlLk6GJQsqaUBKTNV-1">
          <mxGeometry width="50" height="50" relative="1" as="geometry">
            <mxPoint x="532.5" y="-140" as="sourcePoint" />
            <mxPoint x="690" y="-140" as="targetPoint" />
          </mxGeometry>
        </mxCell>
        <mxCell id="IK-9jPHqY36KTBOE9BuH-61" value="" style="endArrow=none;html=1;rounded=0;" edge="1" parent="WIyWlLk6GJQsqaUBKTNV-1">
          <mxGeometry width="50" height="50" relative="1" as="geometry">
            <mxPoint x="535" y="400" as="sourcePoint" />
            <mxPoint x="690" y="400" as="targetPoint" />
          </mxGeometry>
        </mxCell>
        <mxCell id="IK-9jPHqY36KTBOE9BuH-62" value="Finish" style="ellipse;whiteSpace=wrap;html=1;rounded=1;" vertex="1" parent="WIyWlLk6GJQsqaUBKTNV-1">
          <mxGeometry x="630" y="60" width="120" height="130" as="geometry" />
        </mxCell>
        <mxCell id="IK-9jPHqY36KTBOE9BuH-64" value="" style="endArrow=classic;html=1;rounded=0;" edge="1" parent="WIyWlLk6GJQsqaUBKTNV-1">
          <mxGeometry width="50" height="50" relative="1" as="geometry">
            <mxPoint x="690" y="400" as="sourcePoint" />
            <mxPoint x="689.5" y="195" as="targetPoint" />
          </mxGeometry>
        </mxCell>
        <mxCell id="IK-9jPHqY36KTBOE9BuH-66" value="" style="endArrow=classic;html=1;rounded=0;entryX=0.5;entryY=0;entryDx=0;entryDy=0;" edge="1" parent="WIyWlLk6GJQsqaUBKTNV-1" target="IK-9jPHqY36KTBOE9BuH-62">
          <mxGeometry width="50" height="50" relative="1" as="geometry">
            <mxPoint x="690" y="-140" as="sourcePoint" />
            <mxPoint x="750" y="-190" as="targetPoint" />
          </mxGeometry>
        </mxCell>
      </root>
    </mxGraphModel>
  </diagram>
</mxfile>
